<?xml version="1.0" encoding="utf-8"?>
<!-- Generator: Adobe Illustrator 24.1.2, SVG Export Plug-In . SVG Version: 6.00 Build 0)  -->
<svg version="1.1" id="Layer_1" focusable="false" xmlns="http://www.w3.org/2000/svg" xmlns:xlink="http://www.w3.org/1999/xlink"
	 x="0px" y="0px" viewBox="0 0 581 581" style="enable-background:new 0 0 581 581;" xml:space="preserve">
<style type="text/css">
	.st0{fill:#999999;}
</style>
<path class="st0" d="M448,428.3l133.3,133.3l-19.7,19.7L428.3,448L295,581.3l-19.7-19.7l133.3-133.3L275.3,295l19.7-19.7
	l133.3,133.3l133.3-133.3l19.7,19.7 M183.5,550.8V298.3L-0.3,114.5V-0.3H520v114.8L359.5,275L338,253.4l151.5-151.5V30.5h-459v71.4
	L214,285.4V520h38l-30.8,30.8H183.5z"/>
<path class="st0" d="M504.8,15.3v92.9l-156,156L295,210.4L210.4,295l126.1,126.1v14.3l-99.8,99.8h-38V292L15.3,108.2V15.3H504.8z"/>
<path class="st0" d="M183.5,550.8V298.3L-0.3,114.5V-0.3H520v114.8L359.5,275L338,253.4l151.5-151.5V30.5h-459v71.4L214,285.4V520
	h38l-30.8,30.8H183.5z"/>
<path class="st0" d="M448,428.3l133.3,133.3l-19.7,19.7L428.3,448L295,581.3l-19.7-19.7l133.3-133.3L275.3,295l19.7-19.7
	l133.3,133.3l133.3-133.3l19.7,19.7L448,428.3z"/>
</svg>
